<svg width="50" height="50" viewBox="0 0 50 50" fill="none" xmlns="http://www.w3.org/2000/svg">
<path d="M13.7218 9.95265C12.9037 9.95265 12.2122 10.2351 11.6473 10.8C11.0824 11.3649 10.8 12.0564 10.8 12.8745C10.8 13.6926 11.0824 14.3841 11.6473 14.9489C12.2122 15.5138 12.9037 15.7963 13.7218 15.7963C14.5399 15.7963 15.2314 15.5138 15.7963 14.9489C16.3612 14.3841 16.6436 13.6926 16.6436 12.8745C16.6436 12.0564 16.3612 11.3649 15.7963 10.8C15.2314 10.2351 14.5399 9.95265 13.7218 9.95265ZM13.7218 34.1453C12.9037 34.1453 12.2122 34.4277 11.6473 34.9926C11.0824 35.5575 10.8 36.249 10.8 37.0671C10.8 37.8852 11.0824 38.5767 11.6473 39.1416C12.2122 39.7064 12.9037 39.9889 13.7218 39.9889C14.5399 39.9889 15.2314 39.7064 15.7963 39.1416C16.3612 38.5767 16.6436 37.8852 16.6436 37.0671C16.6436 36.249 16.3612 35.5575 15.7963 34.9926C15.2314 34.4277 14.5399 34.1453 13.7218 34.1453ZM5.94979 2.82343H43.9918C44.6151 2.82343 45.1118 3.00847 45.4819 3.37857C45.852 3.74867 46.037 4.24537 46.037 4.86869V20.588C46.037 21.2503 45.852 21.8152 45.4819 22.2827C45.1118 22.7502 44.6151 22.9839 43.9918 22.9839H5.94979C5.36542 22.9839 4.88819 22.7502 4.5181 22.2827C4.148 21.8152 3.96295 21.2503 3.96295 20.588V4.86869C3.96295 4.24537 4.148 3.74867 4.5181 3.37857C4.88819 3.00847 5.36542 2.82343 5.94979 2.82343ZM5.94979 26.9576H43.758C44.3424 26.9576 44.8683 27.2011 45.3358 27.688C45.8033 28.175 46.037 28.7302 46.037 29.3535V44.7807C46.037 45.5598 45.8033 46.1539 45.3358 46.563C44.8683 46.972 44.3424 47.1765 43.758 47.1765H6.24197C5.61865 47.1765 5.08298 46.972 4.63497 46.563C4.18696 46.1539 3.96295 45.5598 3.96295 44.7807V29.3535C3.96295 28.7302 4.148 28.175 4.5181 27.688C4.88819 27.2011 5.36542 26.9576 5.94979 26.9576Z" fill="#1D4F91"/>
</svg>
