<svg width="45" height="14" viewBox="0 0 45 14" fill="none" xmlns="http://www.w3.org/2000/svg">
<path d="M17.9446 3.88109C17.766 3.88109 17.6255 3.83776 17.5231 3.7511C17.4207 3.66443 17.3695 3.50818 17.3695 3.28234V2.20696H17.0307V1.92728H17.3695L17.4128 1.45853H17.7004V1.92728H18.2755V2.20696H17.7004V3.28234C17.7004 3.40577 17.7253 3.4898 17.7752 3.53444C17.8251 3.57646 17.9131 3.59747 18.0391 3.59747H18.2439V3.88109H17.9446Z" fill="#1D4F91"/>
<path d="M18.6958 3.88109V1.04492H19.0267V2.26211C19.0924 2.14131 19.1856 2.04808 19.3064 1.98243C19.4272 1.91415 19.5585 1.88001 19.7003 1.88001C19.9262 1.88001 20.1074 1.95092 20.2439 2.09273C20.3805 2.23191 20.4487 2.44725 20.4487 2.73874V3.88109H20.1218V2.77419C20.1218 2.36715 19.9577 2.16363 19.6294 2.16363C19.4587 2.16363 19.3156 2.22534 19.2 2.34877C19.0845 2.46957 19.0267 2.64289 19.0267 2.86873V3.88109H18.6958Z" fill="#1D4F91"/>
<path d="M21.8285 3.92836C21.642 3.92836 21.4766 3.88634 21.3322 3.8023C21.1877 3.71564 21.0735 3.59616 20.9895 3.44384C20.908 3.29153 20.8673 3.11165 20.8673 2.90419C20.8673 2.69935 20.908 2.52078 20.9895 2.36847C21.0709 2.21353 21.1838 2.09404 21.3282 2.01001C21.4753 1.92334 21.6447 1.88001 21.8364 1.88001C22.0254 1.88001 22.1883 1.92334 22.3248 2.01001C22.464 2.09404 22.5703 2.20565 22.6439 2.34483C22.7174 2.48401 22.7542 2.6337 22.7542 2.79389C22.7542 2.82278 22.7529 2.85166 22.7502 2.88055C22.7502 2.90944 22.7502 2.94226 22.7502 2.97903H21.1943C21.2022 3.12871 21.2363 3.25345 21.2967 3.35324C21.3597 3.45041 21.4372 3.52394 21.5291 3.57383C21.6236 3.62373 21.7234 3.64868 21.8285 3.64868C21.965 3.64868 22.0793 3.61717 22.1712 3.55414C22.2631 3.49111 22.3301 3.40577 22.3721 3.2981H22.699C22.6465 3.4793 22.5454 3.6303 22.3957 3.7511C22.2487 3.86927 22.0596 3.92836 21.8285 3.92836ZM21.8285 2.15969C21.6709 2.15969 21.5304 2.20827 21.407 2.30544C21.2862 2.39998 21.2166 2.53916 21.1982 2.72299H22.4272C22.4193 2.54704 22.3589 2.40917 22.246 2.30938C22.1331 2.20959 21.9939 2.15969 21.8285 2.15969Z" fill="#1D4F91"/>
<path d="M18.3149 8.00839C18.1678 8.00839 18.0391 7.98081 17.9288 7.92566C17.8185 7.87052 17.7292 7.79305 17.661 7.69326L17.6058 7.96112H17.1568V5.12495H17.661V6.28699C17.724 6.20033 17.8067 6.12417 17.9091 6.05852C18.0142 5.99287 18.1494 5.96004 18.3149 5.96004C18.4987 5.96004 18.6628 6.00469 18.8072 6.09397C18.9517 6.18326 19.0659 6.30537 19.1499 6.46031C19.234 6.61525 19.276 6.7912 19.276 6.98815C19.276 7.18511 19.234 7.36106 19.1499 7.516C19.0659 7.66831 18.9517 7.78911 18.8072 7.87839C18.6628 7.96506 18.4987 8.00839 18.3149 8.00839ZM18.2085 7.5672C18.3687 7.5672 18.5013 7.51337 18.6063 7.4057C18.7114 7.29803 18.7639 7.15885 18.7639 6.98815C18.7639 6.81746 18.7114 6.67696 18.6063 6.56667C18.5013 6.45637 18.3687 6.40123 18.2085 6.40123C18.0457 6.40123 17.9117 6.45637 17.8067 6.56667C17.7043 6.67434 17.6531 6.81352 17.6531 6.98422C17.6531 7.15491 17.7043 7.29541 17.8067 7.4057C17.9117 7.51337 18.0457 7.5672 18.2085 7.5672Z" fill="#1D4F91"/>
<path d="M20.8845 8.00839C20.7374 8.00839 20.6088 7.98081 20.4985 7.92566C20.3882 7.87052 20.2989 7.79305 20.2306 7.69326L20.1755 7.96112H19.7264V5.12495H20.2306V6.28699C20.2936 6.20033 20.3764 6.12417 20.4788 6.05852C20.5838 5.99287 20.7191 5.96004 20.8845 5.96004C21.0683 5.96004 21.2325 6.00469 21.3769 6.09397C21.5213 6.18326 21.6356 6.30537 21.7196 6.46031C21.8036 6.61525 21.8457 6.7912 21.8457 6.98815C21.8457 7.18511 21.8036 7.36106 21.7196 7.516C21.6356 7.66831 21.5213 7.78911 21.3769 7.87839C21.2325 7.96506 21.0683 8.00839 20.8845 8.00839ZM20.7782 7.5672C20.9383 7.5672 21.071 7.51337 21.176 7.4057C21.281 7.29803 21.3336 7.15885 21.3336 6.98815C21.3336 6.81746 21.281 6.67696 21.176 6.56667C21.071 6.45637 20.9383 6.40123 20.7782 6.40123C20.6153 6.40123 20.4814 6.45637 20.3764 6.56667C20.2739 6.67434 20.2227 6.81352 20.2227 6.98422C20.2227 7.15491 20.2739 7.29541 20.3764 7.4057C20.4814 7.51337 20.6153 7.5672 20.7782 7.5672Z" fill="#1D4F91"/>
<path d="M22.5757 5.704C22.4838 5.704 22.4077 5.67643 22.3473 5.62128C22.2895 5.56613 22.2606 5.49654 22.2606 5.41251C22.2606 5.32847 22.2895 5.2602 22.3473 5.20767C22.4077 5.15253 22.4838 5.12495 22.5757 5.12495C22.6677 5.12495 22.7425 5.15253 22.8003 5.20767C22.8607 5.2602 22.8909 5.32847 22.8909 5.41251C22.8909 5.49654 22.8607 5.56613 22.8003 5.62128C22.7425 5.67643 22.6677 5.704 22.5757 5.704ZM21.9258 8.82772V8.39836H22.0794C22.1661 8.39836 22.2278 8.38129 22.2646 8.34715C22.3013 8.31301 22.3197 8.25524 22.3197 8.17383V6.00731H22.8239V8.17383C22.8239 8.41018 22.7635 8.57824 22.6427 8.67804C22.5245 8.77783 22.363 8.82772 22.1582 8.82772H21.9258Z" fill="#1D4F91"/>
<path d="M23.3501 8.82772V6.00731H23.7991L23.8543 6.28699C23.9173 6.20033 24 6.12417 24.1025 6.05852C24.2075 5.99287 24.3427 5.96004 24.5082 5.96004C24.692 5.96004 24.8561 6.00469 25.0006 6.09397C25.145 6.18326 25.2592 6.30537 25.3433 6.46031C25.4273 6.61525 25.4693 6.7912 25.4693 6.98815C25.4693 7.18511 25.4273 7.36106 25.3433 7.516C25.2592 7.66831 25.145 7.78911 25.0006 7.87839C24.8561 7.96506 24.692 8.00839 24.5082 8.00839C24.3611 8.00839 24.2325 7.98081 24.1222 7.92566C24.0119 7.87052 23.9226 7.79305 23.8543 7.69326V8.82772H23.3501ZM24.4018 7.5672C24.562 7.5672 24.6946 7.51337 24.7997 7.4057C24.9047 7.29803 24.9572 7.15885 24.9572 6.98815C24.9572 6.81746 24.9047 6.67696 24.7997 6.56667C24.6946 6.45637 24.562 6.40123 24.4018 6.40123C24.239 6.40123 24.1051 6.45637 24 6.56667C23.8976 6.67434 23.8464 6.81352 23.8464 6.98422C23.8464 7.15491 23.8976 7.29541 24 7.4057C24.1051 7.51337 24.239 7.5672 24.4018 7.5672Z" fill="#1D4F91"/>
<path d="M25.9197 7.96112V6.00731H26.3688L26.4161 6.37365C26.487 6.2476 26.5828 6.14781 26.7036 6.07428C26.8271 5.99812 26.9715 5.96004 27.1369 5.96004V6.49183H26.9951C26.8848 6.49183 26.7864 6.5089 26.6997 6.54303C26.613 6.57717 26.5448 6.63626 26.4949 6.72029C26.4476 6.80433 26.424 6.92119 26.424 7.07088V7.96112H25.9197Z" fill="#1D4F91"/>
<path d="M28.3844 8.00839C28.1954 8.00839 28.0247 7.96506 27.8723 7.87839C27.7227 7.79173 27.6032 7.67225 27.5139 7.51993C27.4272 7.365 27.3839 7.18642 27.3839 6.98422C27.3839 6.78201 27.4285 6.60475 27.5178 6.45243C27.6071 6.2975 27.7266 6.1767 27.8763 6.09004C28.0286 6.00338 28.1993 5.96004 28.3884 5.96004C28.5748 5.96004 28.7429 6.00338 28.8926 6.09004C29.0449 6.1767 29.1644 6.2975 29.251 6.45243C29.3403 6.60475 29.385 6.78201 29.385 6.98422C29.385 7.18642 29.3403 7.365 29.251 7.51993C29.1644 7.67225 29.0449 7.79173 28.8926 7.87839C28.7403 7.96506 28.5709 8.00839 28.3844 8.00839ZM28.3844 7.57114C28.5157 7.57114 28.63 7.52256 28.7271 7.4254C28.8243 7.32561 28.8729 7.17855 28.8729 6.98422C28.8729 6.78989 28.8243 6.64414 28.7271 6.54697C28.63 6.44718 28.517 6.39729 28.3884 6.39729C28.2544 6.39729 28.1389 6.44718 28.0417 6.54697C27.9472 6.64414 27.8999 6.78989 27.8999 6.98422C27.8999 7.17855 27.9472 7.32561 28.0417 7.4254C28.1389 7.52256 28.2531 7.57114 28.3844 7.57114Z" fill="#1D4F91"/>
<path d="M30.1155 5.704C30.0235 5.704 29.9474 5.67643 29.887 5.62128C29.8292 5.56613 29.8003 5.49654 29.8003 5.41251C29.8003 5.32847 29.8292 5.2602 29.887 5.20767C29.9474 5.15253 30.0235 5.12495 30.1155 5.12495C30.2074 5.12495 30.2822 5.15253 30.34 5.20767C30.4004 5.2602 30.4306 5.32847 30.4306 5.41251C30.4306 5.49654 30.4004 5.56613 30.34 5.62128C30.2822 5.67643 30.2074 5.704 30.1155 5.704ZM29.4655 8.82772V8.39836H29.6191C29.7058 8.39836 29.7675 8.38129 29.8043 8.34715C29.841 8.31301 29.8594 8.25524 29.8594 8.17383V6.00731H30.3636V8.17383C30.3636 8.41018 30.3032 8.57824 30.1824 8.67804C30.0642 8.77783 29.9027 8.82772 29.6979 8.82772H29.4655Z" fill="#1D4F91"/>
<path d="M31.8391 8.00839C31.6422 8.00839 31.4675 7.96637 31.3152 7.88233C31.1629 7.7983 31.0434 7.68013 30.9568 7.52781C30.8701 7.3755 30.8268 7.19955 30.8268 6.99997C30.8268 6.79776 30.8688 6.61788 30.9528 6.46031C31.0395 6.30275 31.1577 6.18064 31.3073 6.09397C31.4597 6.00469 31.6382 5.96004 31.8431 5.96004C32.0348 5.96004 32.2042 6.00206 32.3512 6.0861C32.4983 6.17013 32.6125 6.28568 32.6939 6.43274C32.778 6.57717 32.82 6.73868 32.82 6.91725C32.82 6.94614 32.8187 6.97634 32.816 7.00785C32.816 7.03936 32.8147 7.07219 32.8121 7.10633H31.327C31.3375 7.25864 31.3901 7.37813 31.4846 7.46479C31.5818 7.55145 31.6986 7.59478 31.8352 7.59478C31.9376 7.59478 32.023 7.57246 32.0912 7.52781C32.1621 7.48054 32.2147 7.42014 32.2488 7.34661H32.7609C32.7241 7.47004 32.6624 7.58296 32.5757 7.68538C32.4917 7.78517 32.3867 7.86395 32.2606 7.92173C32.1372 7.9795 31.9967 8.00839 31.8391 8.00839ZM31.8431 6.36971C31.7196 6.36971 31.6107 6.40517 31.5161 6.47607C31.4216 6.54435 31.3612 6.64939 31.3349 6.7912H32.3079C32.3 6.66252 32.2527 6.5601 32.1661 6.48395C32.0794 6.40779 31.9717 6.36971 31.8431 6.36971Z" fill="#1D4F91"/>
<path d="M33.244 7.96112V5.12495H33.7482V6.79908L34.4415 6.00731H35.0403L34.2406 6.89755L35.1703 7.96112H34.54L33.7482 6.98028V7.96112H33.244Z" fill="#1D4F91"/>
<path d="M18.0627 12.0884C17.8789 12.0884 17.7135 12.0464 17.5664 11.9624C17.4194 11.8783 17.3025 11.7602 17.2158 11.6078C17.1318 11.4529 17.0898 11.2717 17.0898 11.0642C17.0898 10.8568 17.1331 10.6769 17.2198 10.5246C17.3064 10.3696 17.4233 10.2502 17.5704 10.1661C17.72 10.0821 17.8868 10.0401 18.0706 10.0401C18.2545 10.0401 18.4199 10.0821 18.567 10.1661C18.714 10.2502 18.8296 10.3696 18.9136 10.5246C19.0003 10.6769 19.0436 10.8568 19.0436 11.0642C19.0436 11.2717 19.0003 11.4529 18.9136 11.6078C18.8269 11.7602 18.7088 11.8783 18.5591 11.9624C18.412 12.0464 18.2466 12.0884 18.0627 12.0884ZM18.0627 11.8048C18.1757 11.8048 18.2807 11.7772 18.3779 11.7221C18.475 11.6669 18.5538 11.5842 18.6142 11.4739C18.6746 11.3636 18.7048 11.2271 18.7048 11.0642C18.7048 10.9014 18.6746 10.7649 18.6142 10.6546C18.5565 10.5443 18.479 10.4616 18.3818 10.4064C18.2847 10.3513 18.1809 10.3237 18.0706 10.3237C17.9577 10.3237 17.8527 10.3513 17.7555 10.4064C17.6583 10.4616 17.5796 10.5443 17.5192 10.6546C17.4588 10.7649 17.4286 10.9014 17.4286 11.0642C17.4286 11.2271 17.4588 11.3636 17.5192 11.4739C17.5796 11.5842 17.657 11.6669 17.7516 11.7221C17.8487 11.7772 17.9525 11.8048 18.0627 11.8048Z" fill="#1D4F91"/>
<path d="M19.5037 12.0411V10.0873H19.803L19.8306 10.4616C19.891 10.3329 19.9829 10.2305 20.1064 10.1543C20.2298 10.0782 20.3821 10.0401 20.5633 10.0401V10.3867H20.4727C20.3571 10.3867 20.2508 10.4077 20.1536 10.4497C20.0565 10.4891 19.979 10.5574 19.9212 10.6546C19.8634 10.7517 19.8346 10.8857 19.8346 11.0564V12.0411H19.5037Z" fill="#1D4F91"/>
<path d="M21.6606 11.4266C21.5503 11.4266 21.4492 11.4122 21.3573 11.3833L21.1603 11.5685C21.1892 11.5895 21.2246 11.6078 21.2667 11.6236C21.3113 11.6367 21.3743 11.6499 21.4557 11.663C21.5372 11.6735 21.6514 11.6853 21.7984 11.6984C22.0611 11.7168 22.2488 11.7772 22.3617 11.8796C22.4747 11.9821 22.5311 12.116 22.5311 12.2814C22.5311 12.3944 22.4996 12.502 22.4366 12.6044C22.3762 12.7069 22.2816 12.7909 22.153 12.8565C22.0269 12.9222 21.8641 12.955 21.6645 12.955C21.4886 12.955 21.3323 12.9314 21.1958 12.8841C21.0592 12.8395 20.9528 12.7699 20.8767 12.6753C20.8005 12.5834 20.7625 12.4666 20.7625 12.3248C20.7625 12.2512 20.7822 12.1711 20.8215 12.0845C20.8609 12.0004 20.9345 11.9203 21.0421 11.8442C20.9844 11.8206 20.9345 11.7956 20.8924 11.7693C20.8531 11.7405 20.8163 11.7089 20.7822 11.6748V11.5842L21.117 11.2533C20.962 11.122 20.8846 10.9487 20.8846 10.7334C20.8846 10.6047 20.9148 10.4878 20.9752 10.3828C21.0356 10.2777 21.1235 10.195 21.2391 10.1346C21.3546 10.0716 21.4951 10.0401 21.6606 10.0401C21.7735 10.0401 21.8759 10.0558 21.9678 10.0873H22.6887V10.3355L22.3223 10.3513C22.3985 10.4616 22.4366 10.5889 22.4366 10.7334C22.4366 10.862 22.4051 10.9789 22.342 11.0839C22.2816 11.189 22.1937 11.273 22.0781 11.336C21.9652 11.3964 21.826 11.4266 21.6606 11.4266ZM21.6606 11.1548C21.7998 11.1548 21.9101 11.1194 21.9915 11.0485C22.0755 10.975 22.1175 10.8699 22.1175 10.7334C22.1175 10.5994 22.0755 10.497 21.9915 10.4261C21.9101 10.3526 21.7998 10.3158 21.6606 10.3158C21.5188 10.3158 21.4058 10.3526 21.3218 10.4261C21.2404 10.497 21.1997 10.5994 21.1997 10.7334C21.1997 10.8699 21.2404 10.975 21.3218 11.0485C21.4058 11.1194 21.5188 11.1548 21.6606 11.1548ZM21.0855 12.2933C21.0855 12.4246 21.1406 12.5217 21.2509 12.5847C21.3612 12.6504 21.4991 12.6832 21.6645 12.6832C21.8273 12.6832 21.9573 12.6478 22.0545 12.5769C22.1543 12.506 22.2042 12.4114 22.2042 12.2933C22.2042 12.2092 22.17 12.1357 22.1018 12.0727C22.0335 12.0123 21.9074 11.9768 21.7236 11.9663C21.5792 11.9558 21.4544 11.9427 21.3494 11.9269C21.2417 11.9847 21.1708 12.0464 21.1367 12.1121C21.1025 12.1803 21.0855 12.2407 21.0855 12.2933Z" fill="#1D4F91"/>
<path d="M23.7119 12.0884C23.5491 12.0884 23.4138 12.0608 23.3062 12.0057C23.1985 11.9505 23.1184 11.877 23.0659 11.7851C23.0134 11.6932 22.9871 11.5934 22.9871 11.4857C22.9871 11.2861 23.0633 11.1325 23.2156 11.0249C23.3679 10.9172 23.5753 10.8634 23.838 10.8634H24.3658V10.8397C24.3658 10.669 24.3212 10.5403 24.2319 10.4537C24.1426 10.3644 24.0231 10.3198 23.8734 10.3198C23.7447 10.3198 23.6331 10.3526 23.5386 10.4182C23.4467 10.4813 23.3889 10.5745 23.3653 10.6979H23.0265C23.0396 10.5561 23.0869 10.4366 23.1683 10.3394C23.2523 10.2423 23.3561 10.1688 23.4795 10.1189C23.6029 10.0663 23.7342 10.0401 23.8734 10.0401C24.1465 10.0401 24.3514 10.1136 24.4879 10.2607C24.6271 10.4051 24.6967 10.5981 24.6967 10.8397V12.0411H24.4012L24.3816 11.6906C24.3264 11.8009 24.245 11.8954 24.1373 11.9742C24.0323 12.0503 23.8905 12.0884 23.7119 12.0884ZM23.7631 11.8087C23.8892 11.8087 23.9968 11.7759 24.0861 11.7103C24.178 11.6446 24.2476 11.5593 24.2949 11.4542C24.3422 11.3492 24.3658 11.2389 24.3658 11.1233V11.1194H23.8655C23.6712 11.1194 23.5333 11.1535 23.4519 11.2218C23.3731 11.2875 23.3337 11.3702 23.3337 11.47C23.3337 11.5724 23.3705 11.6551 23.444 11.7181C23.5202 11.7785 23.6266 11.8087 23.7631 11.8087Z" fill="#1D4F91"/>
<path d="M25.1931 12.0411V10.0873H25.4924L25.5121 10.4379C25.5752 10.3145 25.6658 10.2173 25.7839 10.1464C25.9021 10.0755 26.036 10.0401 26.1857 10.0401C26.4168 10.0401 26.6006 10.111 26.7372 10.2528C26.8764 10.392 26.946 10.6073 26.946 10.8988V12.0411H26.6151V10.9343C26.6151 10.5272 26.447 10.3237 26.1109 10.3237C25.9428 10.3237 25.8023 10.3854 25.6894 10.5088C25.5791 10.6296 25.524 10.803 25.524 11.0288V12.0411H25.1931Z" fill="#1D4F91"/>
<path d="M27.6482 9.65404C27.5825 9.65404 27.5274 9.63303 27.4827 9.59102C27.4407 9.54637 27.4197 9.49123 27.4197 9.42557C27.4197 9.36255 27.4407 9.31003 27.4827 9.26801C27.5274 9.22599 27.5825 9.20498 27.6482 9.20498C27.7112 9.20498 27.765 9.22599 27.8097 9.26801C27.8543 9.31003 27.8767 9.36255 27.8767 9.42557C27.8767 9.49123 27.8543 9.54637 27.8097 9.59102C27.765 9.63303 27.7112 9.65404 27.6482 9.65404ZM27.4827 12.0411V10.0873H27.8136V12.0411H27.4827Z" fill="#1D4F91"/>
<path d="M28.2558 12.0411V11.7693L29.343 10.3631H28.2755V10.0873H29.7133V10.3591L28.6261 11.7654H29.733V12.0411H28.2558Z" fill="#1D4F91"/>
<path d="M30.8208 12.0884C30.658 12.0884 30.5227 12.0608 30.415 12.0057C30.3074 11.9505 30.2273 11.877 30.1748 11.7851C30.1222 11.6932 30.096 11.5934 30.096 11.4857C30.096 11.2861 30.1721 11.1325 30.3244 11.0249C30.4768 10.9172 30.6842 10.8634 30.9468 10.8634H31.4747V10.8397C31.4747 10.669 31.43 10.5403 31.3407 10.4537C31.2515 10.3644 31.132 10.3198 30.9823 10.3198C30.8536 10.3198 30.742 10.3526 30.6475 10.4182C30.5555 10.4813 30.4978 10.5745 30.4741 10.6979H30.1354C30.1485 10.5561 30.1958 10.4366 30.2772 10.3394C30.3612 10.2423 30.4649 10.1688 30.5884 10.1189C30.7118 10.0663 30.8431 10.0401 30.9823 10.0401C31.2554 10.0401 31.4602 10.1136 31.5968 10.2607C31.736 10.4051 31.8056 10.5981 31.8056 10.8397V12.0411H31.5101L31.4904 11.6906C31.4353 11.8009 31.3539 11.8954 31.2462 11.9742C31.1412 12.0503 30.9993 12.0884 30.8208 12.0884ZM30.872 11.8087C30.998 11.8087 31.1057 11.7759 31.195 11.7103C31.2869 11.6446 31.3565 11.5593 31.4038 11.4542C31.451 11.3492 31.4747 11.2389 31.4747 11.1233V11.1194H30.9744C30.7801 11.1194 30.6422 11.1535 30.5608 11.2218C30.482 11.2875 30.4426 11.3702 30.4426 11.47C30.4426 11.5724 30.4794 11.6551 30.5529 11.7181C30.6291 11.7785 30.7354 11.8087 30.872 11.8087Z" fill="#1D4F91"/>
<path d="M33.0202 12.0411C32.8416 12.0411 32.7011 11.9978 32.5987 11.9112C32.4963 11.8245 32.445 11.6682 32.445 11.4424V10.367H32.1063V10.0873H32.445L32.4884 9.61859H32.7759V10.0873H33.351V10.367H32.7759V11.4424C32.7759 11.5658 32.8009 11.6499 32.8508 11.6945C32.9007 11.7365 32.9886 11.7575 33.1147 11.7575H33.3195V12.0411H33.0202Z" fill="#1D4F91"/>
<path d="M33.9723 9.65404C33.9067 9.65404 33.8515 9.63303 33.8069 9.59102C33.7649 9.54637 33.7438 9.49123 33.7438 9.42557C33.7438 9.36255 33.7649 9.31003 33.8069 9.26801C33.8515 9.22599 33.9067 9.20498 33.9723 9.20498C34.0353 9.20498 34.0892 9.22599 34.1338 9.26801C34.1785 9.31003 34.2008 9.36255 34.2008 9.42557C34.2008 9.49123 34.1785 9.54637 34.1338 9.59102C34.0892 9.63303 34.0353 9.65404 33.9723 9.65404ZM33.8069 12.0411V10.0873H34.1378V12.0411H33.8069Z" fill="#1D4F91"/>
<path d="M35.6041 12.0884C35.4203 12.0884 35.2549 12.0464 35.1078 11.9624C34.9607 11.8783 34.8439 11.7602 34.7572 11.6078C34.6732 11.4529 34.6312 11.2717 34.6312 11.0642C34.6312 10.8568 34.6745 10.6769 34.7612 10.5246C34.8478 10.3696 34.9647 10.2502 35.1117 10.1661C35.2614 10.0821 35.4282 10.0401 35.612 10.0401C35.7958 10.0401 35.9613 10.0821 36.1083 10.1661C36.2554 10.2502 36.3709 10.3696 36.455 10.5246C36.5416 10.6769 36.585 10.8568 36.585 11.0642C36.585 11.2717 36.5416 11.4529 36.455 11.6078C36.3683 11.7602 36.2501 11.8783 36.1005 11.9624C35.9534 12.0464 35.7879 12.0884 35.6041 12.0884ZM35.6041 11.8048C35.717 11.8048 35.8221 11.7772 35.9193 11.7221C36.0164 11.6669 36.0952 11.5842 36.1556 11.4739C36.216 11.3636 36.2462 11.2271 36.2462 11.0642C36.2462 10.9014 36.216 10.7649 36.1556 10.6546C36.0978 10.5443 36.0204 10.4616 35.9232 10.4064C35.826 10.3513 35.7223 10.3237 35.612 10.3237C35.4991 10.3237 35.394 10.3513 35.2969 10.4064C35.1997 10.4616 35.1209 10.5443 35.0605 10.6546C35.0001 10.7649 34.9699 10.9014 34.9699 11.0642C34.9699 11.2271 35.0001 11.3636 35.0605 11.4739C35.1209 11.5842 35.1984 11.6669 35.2929 11.7221C35.3901 11.7772 35.4938 11.8048 35.6041 11.8048Z" fill="#1D4F91"/>
<path d="M37.045 12.0411V10.0873H37.3444L37.3641 10.4379C37.4271 10.3145 37.5177 10.2173 37.6359 10.1464C37.7541 10.0755 37.888 10.0401 38.0377 10.0401C38.2688 10.0401 38.4526 10.111 38.5892 10.2528C38.7284 10.392 38.7979 10.6073 38.7979 10.8988V12.0411H38.4671V10.9343C38.4671 10.5272 38.299 10.3237 37.9629 10.3237C37.7948 10.3237 37.6543 10.3854 37.5414 10.5088C37.4311 10.6296 37.3759 10.803 37.3759 11.0288V12.0411H37.045Z" fill="#1D4F91"/>
<rect x="40.8987" y="10.0986" width="1.92739" height="1.92739" rx="0.5" fill="#1D4F91"/>
<path d="M7.00437 12.9551V7.43021L4.08803 5.74421V7.13532C4.08803 7.41957 3.85761 7.64999 3.57336 7.64999C3.28912 7.64999 3.05869 7.41957 3.05869 7.13532V5.14912L2.17389 4.63759V9.48317C2.17389 9.70457 2.22672 9.90584 2.33239 10.087C2.43806 10.2681 2.58649 10.414 2.7777 10.5247L5.08816 11.8533V9.53579C5.08816 9.25154 5.31859 9.02112 5.60283 9.02112C5.88708 9.02112 6.1175 9.25154 6.1175 9.53579V12.4451L7.00437 12.9551Z" fill="#1D4F91"/>
<path d="M12.4387 10.5247C12.6299 10.414 12.7783 10.2681 12.884 10.087C12.9896 9.90584 13.0425 9.70457 13.0425 9.48317V4.63759L8.21199 7.43021V12.9551L9.09979 12.4446V8.17341C9.09979 7.88917 9.33021 7.65874 9.61446 7.65874C9.8987 7.65874 10.1291 7.88917 10.1291 8.17341V11.8527L11.1283 11.2782V9.45113C11.1283 9.16689 11.3588 8.93646 11.643 8.93646C11.9272 8.93646 12.1577 9.16689 12.1577 9.45113V10.6863L12.4387 10.5247Z" fill="#1D4F91"/>
<path fill-rule="evenodd" clip-rule="evenodd" d="M8.21199 1.21097L12.3934 3.61112L7.60818 6.38864L2.80789 3.62621L7.00437 1.21097C7.19558 1.10027 7.39685 1.04492 7.60818 1.04492C7.81951 1.04492 8.02078 1.10027 8.21199 1.21097ZM7.83116 2.80224L9.24341 3.61288C9.29355 3.64166 9.29372 3.71392 9.24372 3.74294L7.64846 4.6689C7.62524 4.68238 7.59659 4.68243 7.57332 4.66904L5.97321 3.74822C5.92303 3.71934 5.92303 3.64694 5.97321 3.61806L7.3907 2.80224C7.46044 2.76186 7.53385 2.74168 7.61093 2.74168C7.68801 2.74168 7.76142 2.76186 7.83116 2.80224Z" fill="#1D4F91"/>
</svg>
