<svg width="50" height="50" viewBox="0 0 50 50" fill="none" xmlns="http://www.w3.org/2000/svg">
<path d="M44.37 11.282L27.4442 1.56649C26.6702 1.1184 25.8554 0.894348 25 0.894348C24.1445 0.894348 23.3298 1.1184 22.5558 1.56649L5.5689 11.3431L25 22.5252L44.37 11.282Z" fill="#1D4F91"/>
<path fill-rule="evenodd" clip-rule="evenodd" d="M22.5558 26.7414V49.1054L5.44669 39.2677C4.67271 38.8196 4.07185 38.2289 3.64413 37.4957C3.2164 36.7624 3.00253 35.9477 3.00253 35.0515V15.4371L22.5558 26.7414Z" fill="#1D4F91"/>
<path fill-rule="evenodd" clip-rule="evenodd" d="M27.4442 26.7414L46.9974 15.4371V24.2302L27.4442 35.3001V26.7414ZM30.525 27.3412C30.8721 26.9941 31.2937 26.8205 31.7897 26.8205C32.2857 26.8205 32.7072 26.9941 33.0544 27.3412C33.4016 27.6884 33.5752 28.11 33.5752 28.606C33.5752 29.1019 33.4016 29.5235 33.0544 29.8707C32.7072 30.2179 32.2857 30.3915 31.7897 30.3915C31.2937 30.3915 30.8721 30.2179 30.525 29.8707C30.1778 29.5235 30.0042 29.1019 30.0042 28.606C30.0042 28.11 30.1778 27.6884 30.525 27.3412Z" fill="#1D4F91"/>
<path fill-rule="evenodd" clip-rule="evenodd" d="M46.3559 37.4957C45.9281 38.2289 45.3273 38.8196 44.5533 39.2677L35.9987 44.1866L27.4442 49.1054V40.5456L46.9974 29.2949V35.0515C46.9974 35.9477 46.7836 36.7624 46.3559 37.4957ZM30.525 41.1302C30.8721 40.7831 31.2937 40.6095 31.7897 40.6095C32.2857 40.6095 32.7072 40.7831 33.0544 41.1302C33.4016 41.4774 33.5752 41.899 33.5752 42.395C33.5752 42.891 33.4016 43.3125 33.0544 43.6597C32.7072 44.0069 32.2857 44.1805 31.7897 44.1805C31.2937 44.1805 30.8721 44.0069 30.525 43.6597C30.1778 43.3125 30.0042 42.891 30.0042 42.395C30.0042 41.899 30.1778 41.4774 30.525 41.1302Z" fill="#1D4F91"/>
</svg>
