<svg width="259" height="35" viewBox="0 0 259 35" fill="none" xmlns="http://www.w3.org/2000/svg">
<path d="M30.964 17.8371H19.7298V29.1172H30.964V17.8371V17.8371Z" fill="#005397"/>
<path fill-rule="evenodd" clip-rule="evenodd" d="M26.4706 15.4451V3.18023C26.2834 3.17519 26.0961 3.17265 25.9088 3.17261C14.4313 3.17261 5.125 12.516 5.125 24.0417C5.125 24.2299 5.1275 24.4181 5.13263 24.6064H17.322V15.446H26.4698L26.4706 15.4451Z" fill="#005397"/>
<path d="M44.6597 21.2052V17.3261C45.1915 16.6692 46.2551 16.2938 47.0059 16.2938C48.5387 16.2938 49.8213 17.3574 49.8213 19.2344C49.8213 21.1426 48.5387 22.2062 47.0059 22.2062C46.2551 22.2062 45.1915 21.8621 44.6597 21.2052ZM44.6597 26.8047V25.2093C45.9423 26.6483 47.3813 27.1801 48.9141 27.1801C52.5742 27.1801 55.5773 24.4273 55.5773 19.2344C55.5773 14.2292 52.6368 11.3199 48.9141 11.3199C47.3813 11.3199 45.8484 11.8517 44.6597 13.2907V5.93928H39.0289V26.8047H44.6597Z" fill="#005397"/>
<path d="M63.2948 21.2052V17.3261C63.8266 16.6692 64.8902 16.2938 65.641 16.2938C67.1738 16.2938 68.4564 17.3574 68.4564 19.2344C68.4564 21.1426 67.1738 22.2062 65.641 22.2062C64.8902 22.2062 63.8266 21.8621 63.2948 21.2052ZM63.2948 26.8047V25.2093C64.5774 26.6483 66.0164 27.1801 67.5492 27.1801C71.2093 27.1801 74.2124 24.4273 74.2124 19.2344C74.2124 14.2292 71.2719 11.3199 67.5492 11.3199C66.0164 11.3199 64.4835 11.8517 63.2948 13.2907V5.93928H57.664V26.8047H63.2948Z" fill="#005397"/>
<path d="M79.1145 10.6004C80.8663 10.6004 82.274 9.19267 82.274 7.44085C82.274 5.68903 80.8663 4.28131 79.1145 4.28131C77.3627 4.28131 75.9549 5.68903 75.9549 7.44085C75.9549 9.19267 77.3627 10.6004 79.1145 10.6004ZM75.6421 32.9361C80.0217 32.9361 81.9299 30.0268 81.9299 26.1478V11.6953H76.2991V26.1478C76.2991 27.5868 75.6734 28.3376 74.6411 28.3376C73.7652 28.3376 73.3898 28.2124 72.7641 27.7432L71.419 31.9038C72.639 32.6546 73.3585 32.9361 75.6421 32.9361Z" fill="#005397"/>
<path d="M94.952 27.1801C98.7059 27.1801 101.584 24.4273 101.584 19.2344C101.584 14.0727 98.7059 11.3199 94.952 11.3199C93.3879 11.3199 91.9176 11.8517 90.6976 13.2907V11.6953H85.0667V32.5607H90.6976V25.2093C91.9489 26.6483 93.3879 27.1801 94.952 27.1801ZM93.0125 22.2062C92.293 22.2062 91.1981 21.7995 90.6976 21.1739V17.3261C91.2294 16.6692 92.293 16.2938 93.0125 16.2938C94.514 16.2938 95.8279 17.3574 95.8279 19.2344C95.8279 21.1426 94.514 22.2062 93.0125 22.2062Z" fill="#005397"/>
<path d="M109.302 26.8047V17.5451C109.928 16.7943 111.461 16.4815 112.649 16.4815C113.181 16.4815 113.65 16.5441 113.932 16.6379V11.2573C112.211 11.2573 110.241 12.2584 109.302 13.3532V11.6953H103.671V26.8047H109.302Z" fill="#005397"/>
<path d="M123.306 27.1801C128.686 27.1801 131.815 23.4575 131.815 19.2344C131.815 15.0112 128.686 11.3199 123.306 11.3199C117.956 11.3199 114.828 15.0112 114.828 19.2344C114.828 23.4575 117.956 27.1801 123.306 27.1801ZM123.306 22.2062C121.585 22.2062 120.615 20.9236 120.615 19.2344C120.615 17.5764 121.585 16.2938 123.306 16.2938C125.058 16.2938 126.027 17.5764 126.027 19.2344C126.027 20.9236 125.058 22.2062 123.306 22.2062Z" fill="#005397"/>
<path d="M136.731 10.6004C138.482 10.6004 139.89 9.19267 139.89 7.44085C139.89 5.68903 138.482 4.28131 136.731 4.28131C134.979 4.28131 133.571 5.68903 133.571 7.44085C133.571 9.19267 134.979 10.6004 136.731 10.6004ZM133.258 32.9361C137.638 32.9361 139.546 30.0268 139.546 26.1478V11.6953H133.915V26.1478C133.915 27.5868 133.289 28.3376 132.257 28.3376C131.381 28.3376 131.006 28.2124 130.38 27.7432L129.035 31.9038C130.255 32.6546 130.975 32.9361 133.258 32.9361Z" fill="#005397"/>
<path d="M150.065 27.1801C152.318 27.1801 155.008 26.5858 156.51 25.3032L154.195 21.8308C153.444 22.4877 151.567 22.8944 150.722 22.8944C148.877 22.8944 147.782 21.9559 147.469 20.9862H157.73V19.8287C157.73 14.5107 154.32 11.3199 149.878 11.3199C144.998 11.3199 141.65 14.8548 141.65 19.2344C141.65 24.2083 145.342 27.1801 150.065 27.1801ZM152.38 17.42H147.406C147.594 16.7318 148.157 15.6056 149.878 15.6056C151.692 15.6056 152.224 16.763 152.38 17.42Z" fill="#005397"/>
<path d="M175.904 26.8047L170.367 18.5774L175.56 11.6953H168.771L165.299 17.0759V5.93928H159.668V26.8047H165.299V23.3949L166.394 21.9247L168.99 26.8047H175.904Z" fill="#005397"/>
<path d="M189.664 26.9076C193.774 26.9076 196.214 24.2926 196.214 21.2294C196.214 16.4229 188.095 16.6471 188.095 14.5053C188.095 13.6088 189.042 12.8118 190.312 12.8118C192.005 12.8118 194.023 13.4842 195.268 14.9287L197.459 12.4383C195.99 10.7199 193.5 9.74863 190.86 9.74863C186.751 9.74863 184.36 12.4134 184.36 15.1528C184.36 19.9593 192.429 19.6107 192.429 21.9267C192.429 22.7735 191.706 23.8194 189.938 23.8194C187.647 23.8194 185.48 22.7735 184.335 21.2294L182.143 23.8194C183.538 25.6374 186.402 26.9076 189.664 26.9076ZM201.816 26.9076C202.588 26.9076 203.335 26.7083 203.808 26.3846L203.684 23.8443C203.534 23.9689 203.136 24.0934 202.812 24.0934C202.015 24.0934 201.642 23.6949 201.642 23.0474C201.642 22.898 201.667 22.6988 201.691 22.5493L202.837 17.3195H205.278L205.925 14.58H203.485L204.207 11.2927H201.019L200.297 14.58H198.305L197.682 17.3195H199.674L198.329 23.4708C198.255 23.7696 198.23 24.1183 198.23 24.2926C198.23 26.0857 199.674 26.9076 201.816 26.9076ZM212.173 14.2812C208.064 14.2812 205.823 18.2907 205.823 21.9267C205.823 25.1145 207.666 26.9076 210.405 26.9076C211.85 26.9076 212.995 26.3099 214.016 25.1145L213.668 26.6087H216.855L219.52 14.58H216.332L216.009 16.1739C215.212 14.9785 213.767 14.2812 212.173 14.2812ZM212.671 17.0953C213.942 17.0953 214.963 17.693 215.486 18.49L214.564 22.6739C213.917 23.4957 212.92 24.0934 211.8 24.0934C210.281 24.0934 209.135 22.9976 209.135 21.2792C209.135 19.0628 210.604 17.0953 212.671 17.0953ZM224.823 26.9076C225.595 26.9076 226.342 26.7083 226.815 26.3846L226.691 23.8443C226.541 23.9689 226.143 24.0934 225.819 24.0934C225.022 24.0934 224.649 23.6949 224.649 23.0474C224.649 22.898 224.674 22.6988 224.699 22.5493L225.844 17.3195H228.285L228.932 14.58H226.492L227.214 11.2927H224.026L223.304 14.58H221.312L220.689 17.3195H222.681L221.337 23.4708C221.262 23.7696 221.237 24.1183 221.237 24.2926C221.237 26.0857 222.681 26.9076 224.823 26.9076ZM231.046 14.58L229.228 22.8482C229.179 23.0723 229.104 23.6202 229.104 23.8194C229.104 25.6873 230.548 26.9076 232.864 26.9076C234.633 26.9076 235.928 25.9363 236.874 25.0397L236.525 26.6087H239.688L242.353 14.58H239.19L237.397 22.6739C236.7 23.3463 235.654 24.0934 234.533 24.0934C233.412 24.0934 232.516 23.6451 232.516 22.5493C232.516 22.3252 232.566 22.0513 232.615 21.8271L234.234 14.58H231.046ZM248.058 26.9076C251.346 26.9076 253.263 24.9899 253.263 22.6988C253.263 19.0379 247.162 19.3865 247.162 17.8674C247.162 17.2448 247.784 16.6969 248.905 16.6969C250.375 16.6969 251.869 17.5187 252.442 18.2658L254.06 16.2486C252.915 15.0532 250.997 14.2812 248.955 14.2812C245.742 14.2812 243.999 16.2486 243.999 18.3405C243.999 21.9516 250.101 21.4785 250.101 23.2466C250.101 23.8942 249.428 24.5168 248.357 24.5168C246.614 24.5168 244.846 23.4708 244.148 22.624L242.38 24.7409C243.725 26.1604 245.867 26.9076 248.058 26.9076Z" fill="#005397"/>
</svg>
