<svg width="266" height="72" viewBox="0 0 266 72" fill="none" xmlns="http://www.w3.org/2000/svg">
<path d="M33.8174 35.4465H22.5831V46.7266H33.8174V35.4465V35.4465Z" fill="#005397"/>
<path fill-rule="evenodd" clip-rule="evenodd" d="M29.324 33.0545V20.7896C29.1368 20.7846 28.9495 20.782 28.7621 20.782C17.2846 20.782 7.97839 30.1254 7.97839 41.6511C7.97839 41.8392 7.98089 42.0275 7.98602 42.2157H20.1754V33.0554H29.3231L29.324 33.0545Z" fill="#005397"/>
<path d="M47.5131 38.8145V34.9354C48.0449 34.2785 49.1085 33.9031 49.8593 33.9031C51.3921 33.9031 52.6747 34.9667 52.6747 36.8437C52.6747 38.7519 51.3921 39.8155 49.8593 39.8155C49.1085 39.8155 48.0449 39.4714 47.5131 38.8145ZM47.5131 44.414V42.8186C48.7957 44.2576 50.2347 44.7894 51.7675 44.7894C55.4276 44.7894 58.4307 42.0366 58.4307 36.8437C58.4307 31.8385 55.4901 28.9292 51.7675 28.9292C50.2347 28.9292 48.7018 29.461 47.5131 30.9V23.5486H41.8822V44.414H47.5131Z" fill="#005397"/>
<path d="M66.1482 38.8145V34.9354C66.68 34.2785 67.7436 33.9031 68.4944 33.9031C70.0272 33.9031 71.3098 34.9667 71.3098 36.8437C71.3098 38.7519 70.0272 39.8155 68.4944 39.8155C67.7436 39.8155 66.68 39.4714 66.1482 38.8145ZM66.1482 44.414V42.8186C67.4308 44.2576 68.8698 44.7894 70.4026 44.7894C74.0627 44.7894 77.0658 42.0366 77.0658 36.8437C77.0658 31.8385 74.1253 28.9292 70.4026 28.9292C68.8698 28.9292 67.3369 29.461 66.1482 30.9V23.5486H60.5173V44.414H66.1482Z" fill="#005397"/>
<path d="M81.9679 28.2097C83.7197 28.2097 85.1274 26.802 85.1274 25.0502C85.1274 23.2983 83.7197 21.8906 81.9679 21.8906C80.2161 21.8906 78.8083 23.2983 78.8083 25.0502C78.8083 26.802 80.2161 28.2097 81.9679 28.2097ZM78.4955 50.5454C82.8751 50.5454 84.7833 47.6361 84.7833 43.7571V29.3046H79.1525V43.7571C79.1525 45.1961 78.5268 45.9469 77.4945 45.9469C76.6186 45.9469 76.2432 45.8218 75.6175 45.3525L74.2724 49.5131C75.4924 50.2639 76.2119 50.5454 78.4955 50.5454Z" fill="#005397"/>
<path d="M97.8054 44.7894C101.559 44.7894 104.437 42.0366 104.437 36.8437C104.437 31.6821 101.559 28.9292 97.8054 28.9292C96.2413 28.9292 94.771 29.461 93.551 30.9V29.3046H87.9201V50.17H93.551V42.8186C94.8023 44.2576 96.2413 44.7894 97.8054 44.7894ZM95.8659 39.8155C95.1464 39.8155 94.0515 39.4088 93.551 38.7832V34.9354C94.0828 34.2785 95.1464 33.9031 95.8659 33.9031C97.3674 33.9031 98.6813 34.9667 98.6813 36.8437C98.6813 38.7519 97.3674 39.8155 95.8659 39.8155Z" fill="#005397"/>
<path d="M112.156 44.414V35.1544C112.781 34.4036 114.314 34.0908 115.503 34.0908C116.035 34.0908 116.504 34.1534 116.785 34.2472V28.8666C115.065 28.8666 113.094 29.8677 112.156 30.9626V29.3046H106.525V44.414H112.156Z" fill="#005397"/>
<path d="M126.159 44.7894C131.54 44.7894 134.668 41.0668 134.668 36.8437C134.668 32.6205 131.54 28.9292 126.159 28.9292C120.81 28.9292 117.682 32.6205 117.682 36.8437C117.682 41.0668 120.81 44.7894 126.159 44.7894ZM126.159 39.8155C124.439 39.8155 123.469 38.5329 123.469 36.8437C123.469 35.1857 124.439 33.9031 126.159 33.9031C127.911 33.9031 128.881 35.1857 128.881 36.8437C128.881 38.5329 127.911 39.8155 126.159 39.8155Z" fill="#005397"/>
<path d="M139.584 28.2097C141.336 28.2097 142.743 26.802 142.743 25.0502C142.743 23.2983 141.336 21.8906 139.584 21.8906C137.832 21.8906 136.424 23.2983 136.424 25.0502C136.424 26.802 137.832 28.2097 139.584 28.2097ZM136.112 50.5454C140.491 50.5454 142.399 47.6361 142.399 43.7571V29.3046H136.769V43.7571C136.769 45.1961 136.143 45.9469 135.111 45.9469C134.235 45.9469 133.859 45.8218 133.234 45.3525L131.888 49.5131C133.108 50.2639 133.828 50.5454 136.112 50.5454Z" fill="#005397"/>
<path d="M152.919 44.7894C155.171 44.7894 157.861 44.1951 159.363 42.9125L157.048 39.4401C156.297 40.0971 154.42 40.5037 153.576 40.5037C151.73 40.5037 150.635 39.5653 150.322 38.5955H160.583V37.438C160.583 32.12 157.173 28.9292 152.731 28.9292C147.851 28.9292 144.504 32.4641 144.504 36.8437C144.504 41.8176 148.195 44.7894 152.919 44.7894ZM155.234 35.0293H150.26C150.448 34.3411 151.011 33.2149 152.731 33.2149C154.546 33.2149 155.077 34.3724 155.234 35.0293Z" fill="#005397"/>
<path d="M178.757 44.414L173.22 36.1867L178.413 29.3046H171.625L168.152 34.6852V23.5486H162.522V44.414H168.152V41.0043L169.247 39.534L171.844 44.414H178.757Z" fill="#005397"/>
<path d="M192.518 44.5169C196.627 44.5169 199.068 41.9019 199.068 38.8387C199.068 34.0322 190.949 34.2564 190.949 32.1146C190.949 31.2181 191.895 30.4211 193.165 30.4211C194.859 30.4211 196.876 31.0936 198.121 32.538L200.313 30.0476C198.843 28.3292 196.353 27.3579 193.713 27.3579C189.604 27.3579 187.213 30.0227 187.213 32.7621C187.213 37.5686 195.282 37.22 195.282 39.536C195.282 40.3828 194.56 41.4288 192.792 41.4288C190.501 41.4288 188.334 40.3828 187.188 38.8387L184.997 41.4288C186.391 43.2468 189.255 44.5169 192.518 44.5169ZM204.669 44.5169C205.441 44.5169 206.189 44.3176 206.662 43.9939L206.537 41.4537C206.388 41.5782 205.989 41.7027 205.666 41.7027C204.869 41.7027 204.495 41.3042 204.495 40.6567C204.495 40.5073 204.52 40.3081 204.545 40.1586L205.69 34.9288H208.131L208.779 32.1893H206.338L207.06 28.902H203.872L203.15 32.1893H201.158L200.535 34.9288H202.528L201.183 41.0801C201.108 41.3789 201.083 41.7276 201.083 41.9019C201.083 43.695 202.528 44.5169 204.669 44.5169ZM215.027 31.8905C210.918 31.8905 208.676 35.9 208.676 39.536C208.676 42.7238 210.519 44.5169 213.259 44.5169C214.703 44.5169 215.849 43.9192 216.87 42.7238L216.521 44.218H219.709L222.373 32.1893H219.186L218.862 33.7832C218.065 32.5878 216.621 31.8905 215.027 31.8905ZM215.525 34.7047C216.795 34.7047 217.816 35.3023 218.339 36.0993L217.418 40.2832C216.77 41.105 215.774 41.7027 214.653 41.7027C213.134 41.7027 211.988 40.6069 211.988 38.8885C211.988 36.6721 213.458 34.7047 215.525 34.7047ZM227.676 44.5169C228.449 44.5169 229.196 44.3176 229.669 43.9939L229.544 41.4537C229.395 41.5782 228.996 41.7027 228.673 41.7027C227.876 41.7027 227.502 41.3042 227.502 40.6567C227.502 40.5073 227.527 40.3081 227.552 40.1586L228.698 34.9288H231.138L231.786 32.1893H229.345L230.067 28.902H226.88L226.157 32.1893H224.165L223.542 34.9288H225.535L224.19 41.0801C224.115 41.3789 224.09 41.7276 224.09 41.9019C224.09 43.695 225.535 44.5169 227.676 44.5169ZM233.9 32.1893L232.082 40.4575C232.032 40.6816 231.957 41.2295 231.957 41.4288C231.957 43.2966 233.402 44.5169 235.718 44.5169C237.486 44.5169 238.781 43.5456 239.727 42.6491L239.379 44.218H242.542L245.206 32.1893H242.043L240.25 40.2832C239.553 40.9556 238.507 41.7027 237.386 41.7027C236.266 41.7027 235.369 41.2544 235.369 40.1586C235.369 39.9345 235.419 39.6606 235.469 39.4364L237.088 32.1893H233.9ZM250.912 44.5169C254.199 44.5169 256.117 42.5993 256.117 40.3081C256.117 36.6472 250.015 36.9958 250.015 35.4767C250.015 34.8541 250.638 34.3062 251.759 34.3062C253.228 34.3062 254.722 35.128 255.295 35.8751L256.914 33.8579C255.768 32.6625 253.851 31.8905 251.808 31.8905C248.596 31.8905 246.852 33.8579 246.852 35.9499C246.852 39.561 252.954 39.0878 252.954 40.856C252.954 41.5035 252.282 42.1261 251.211 42.1261C249.467 42.1261 247.699 41.0801 247.002 40.2334L245.234 42.3502C246.579 43.7697 248.72 44.5169 250.912 44.5169Z" fill="#005397"/>
</svg>
